<?xml version="1.0" encoding="UTF-8"?>
<svg id="Layer_1" xmlns="http://www.w3.org/2000/svg" version="1.1" viewBox="0 0 64 64">
  <!-- Generator: Adobe Illustrator 29.7.1, SVG Export Plug-In . SVG Version: 2.1.1 Build 8)  -->
  <defs>
    <style>
      .st0 {
        fill: #fff;
      }
    </style>
  </defs>
  <path class="st0" d="M12.42,60.46c-1.04,0-2.03-.41-2.77-1.15-.74-.74-1.15-1.72-1.15-2.77V15.54c0-1.04.41-2.03,1.15-2.77s1.72-1.15,2.77-1.15h4.58v-4.2c0-1.04.41-2.03,1.15-2.77s1.72-1.15,2.77-1.15h20.15c.12,0,.26.06.37.16l13.91,13.9s.06.08.09.15c.04.07.06.15.06.22v30.53c0,1.04-.41,2.03-1.15,2.77s-1.72,1.15-2.77,1.15h-4.58v4.2c0,1.03-.42,2.01-1.16,2.74-.74.73-1.72,1.14-2.76,1.14,0,0-30.66,0-30.66,0ZM12.42,12.7c-.78,0-1.51.3-2.06.86-.55.55-.86,1.28-.86,2.06v41c0,.78.3,1.51.86,2.06.55.55,1.28.86,2.06.86h30.66c.78,0,1.51-.3,2.06-.86s.86-1.29.86-2.06v-4.24h-25.08c-1.04,0-2.03-.41-2.77-1.15s-1.15-1.72-1.15-2.77V12.7h-4.58ZM20.92,4.5c-.39,0-.77.08-1.13.23-.36.15-.68.37-.96.65-.27.28-.48.6-.63.97-.14.37-.21.75-.2,1.14v40.98c0,.37.06.75.2,1.11.15.37.36.69.63.97.27.28.59.5.96.65.36.15.74.23,1.13.23l31.65-.21h0s.09-.04.13-.05c.36-.15.68-.37.96-.65.27-.28.48-.61.63-.97.14-.36.21-.74.21-1.13v-29.98h-13.43c-.13,0-.26-.05-.35-.15-.09-.09-.15-.22-.15-.35V4.5h-19.65ZM41.57,17.42h12.23l-12.23-12.21v12.21Z"/>
</svg>