<?xml version="1.0" encoding="UTF-8"?>
<svg xmlns="http://www.w3.org/2000/svg" version="1.1" viewBox="0 0 453.29 170.07">
  <!-- Generator: Adobe Illustrator 29.3.0, SVG Export Plug-In . SVG Version: 2.1.0 Build 146)  -->
  <defs>
    <style>
      .st0 {
        fill: #010101;
      }

      .st1 {
        fill: #020202;
      }

      .st2 {
        fill: #050505;
      }

      .st3 {
        fill: #060606;
      }

      .st4 {
        fill: none;
      }

      .st5 {
        fill: #fbfbfb;
      }

      .st6 {
        fill: #040303;
      }

      .st7 {
        fill: #231f20;
      }

      .st8 {
        fill: #030303;
      }

      .st9 {
        fill: #cc6601;
      }

      .st10 {
        display: none;
      }

      .st11 {
        fill: #ccc;
      }

      .st12 {
        fill: #020101;
      }

      .st13 {
        fill: #040404;
      }

      .st14 {
        fill: #c60;
      }

      .st15 {
        fill: #030202;
      }
    </style>
  </defs>
  <g id="Layer_2" class="st10">
    <rect class="st7" width="453.29" height="170.07"/>
  </g>
  <g id="Layer_1">
    <rect class="st4" width="453.29" height="170.07"/>
    <path class="st11" d="M321.66,26.53c-.03,10.04.04,20.09,0,30.14-.01,2.6.2,3.94-.86,6.52-.58,1.41-2.5,3.7-2.43,4.98.17,3.08,6.6,4.27,6.61,8.44,0,3.56-3.03,6.74-3.31,11.11-1.02,16.07,3.14,30.7-5.88,45.33-2.52,4.08-7.75,9.93-11.83,12.44-.87.53-1.14.42-.39-.39,2-2.2,4.48-4.04,6.49-6.47,12.24-14.8,6.54-31.79,8.12-49.05.16-1.76.99-3.45,1.81-4.97,1.21-2.26,2.94-2.88.35-5.21-3.2-2.88-6.74-3.49-4.73-9.04,1.51-4.18,2.56-5.57,2.78-10.38.39-8.53-.33-17.35,0-25.9.11-.8,2.26-6.46,2.71-7.17.16-.26.19-.44.57-.36Z"/>
    <path class="st14" d="M396.55,37.66c1.76-.34.82,2.33.79,3.36-.89,31.03,2.22,67.55-10.65,96.49-6.7,15.06-20.85,28.6-38.75,23.45-24.81-7.14-14.07-46.42-5.2-62.46.42-.77,2.22-4.28,3.08-4.11.57.41.27,1.01.12,1.55-1.47,5.23-4.36,10.53-5.91,16.09-3.63,13-3.85,31.18,13.06,33.92,14.83,2.4,28.19-7.7,33.81-20.78,7.98-18.56,2.9-45.68,3.86-65.85.35-7.41,3.73-14.63,5.79-21.67Z"/>
    <path class="st14" d="M369.94,109.96c-.38.34-.67.3-.77-.24-.23-1.32.28-3.75.22-5.36-.23-5.77-3.01-15.93-7.73-19.62-1.44-1.13-1.38-.1-2.72.15-3.88.73-3.67-7.19-3.08-9.46.95-3.67,4.69-1.66,6.53.14,4.63,4.52,8.2,15.03,8.63,21.4.1,1.54-.06,3.17,0,4.73,0,.25-.15.77.2.72,2.51-10.03.08-20.35,2.33-30.47.72-3.24,2.9-10.48,7.44-7.16,2.17,1.59,2.34,5.29,1.73,7.69-.96,3.76-3.36.93-5.12,1.67-1.25.53-2.2,5.66-2.42,7.04-1.18,7.5-.58,15.1-2.58,22.51-.39,1.45-1.64,5.33-2.67,6.27Z"/>
    <path class="st14" d="M408.05,140.87c-.21-.21,1.33-3.43,1.6-3.84,1.04-1.56,6.05-3.91,7.92-5.04,2.36-1.42,5.13-3.45,7.48-4.65.2-.1,1.28-.67,1.3-.14,0,.22-2.05,3.39-2.38,3.79-1.9,2.3-10.2,6.93-13.19,8.61-.4.23-2.49,1.52-2.73,1.27Z"/>
    <path class="st14" d="M417.54,123.36c-.78-.5.3-1.45.72-1.78,4.79-3.82,18.47-8.47,19.38-15.37.79-5.93-5.73-10.34-10.99-10.98-.83-.1-2.38.41-2.51-.75l2.31-13.03c1.06-1.2,6.06.12,7.5.72,5.1,2.12,8.85,8.37,9.26,13.78.71,9.47-3.34,18.61-10.08,25.08-3.55.01-6.84.52-10.28,1.24-.94.2-4.76,1.46-5.31,1.1Z"/>
    <path class="st14" d="M418.69,87.87c.21.25.24,1.12.27,1.48.12,1.86-.08,4.28-.22,6.18-.51,7.09-2.6,20.77-6.82,26.49-1.82,2.46-3.52,1.9-6.17,2.47-3.23.68-6.93,2.03-9.99,2.56-.96.17-1.76.24-1.08-.87,7.68-4.94,15.49-10.04,19.37-18.68,2.75-6.14,2.79-12.57,3.48-19.15.02-.6.77-.95,1.17-.48Z"/>
    <path class="st14" d="M406.17,88.87c.1.06.95,1.56,1.26,1.92,1.31,1.52,2.96,2.93,4.66,3.98.64.39,1.46.64,2.07,1.01.54.32.23.9.02,1.37-.64,1.45-4.52,5.7-5.83,6.71-1.43,1.09-2.25,1.04-3.94.45s-6.25-3.93-6.25-5.9c0-1.12,2.88-4.76,3.72-5.75.66-.78,1.73-2.01,2.46-2.68.31-.29,1.48-1.31,1.83-1.1Z"/>
    <path class="st14" d="M406.81,10.28c-.03,1.06.05,2.13,0,3.2-.35,9.92-1.5,19.89-1.87,29.8-.21,5.61-.76,15.99,1.41,21.02s7.52,6.41,9.4.48c.25-.79.53-3.6.7-3.82.65-.84,1.36-.07,1.46.84.6,5.18-2,18.07-7.06,20.71-5.77,3.01-9.73-4.18-10.21-8.99-.82-8.1.08-17.9.41-26.12.51-12.71.49-23.19,4.68-35.42.06-.18.64-2.2,1.08-1.69Z"/>
    <path class="st14" d="M426.3,66.06c.62-.1,1.88.13,2.56.22,1.2.16,5.64,1.02,6.52,1.5,1.5.82.51,3.74-.29,4.82-1.79,2.43-9.08,6.67-12.02,7.31-.53.12-1.66.29-1.42-.59.44-1.63,7.8-4.59,9.01-6.42.15-.71-3.42-1.37-4.06-1.47-1.95-.3-2.66-.46-4.43.59-1.05.63-2.52,2.35-3.43,2.74-.29.13-.57.01-.62-.21-.21-1.11,6.55-8.23,8.18-8.49Z"/>
    <path class="st9" d="M422.03,41.13c-.31.81-.07,2.29-.74,2.86-4.83,2.35-9.62,4.75-14.27,7.42,0-1.07.02-2.8.83-3.59,1.03-1,5.22-3.06,6.7-3.79.92-.45,7.05-3.28,7.48-2.91Z"/>
    <path class="st9" d="M402.49,132.03c.09.39-.22.49-.41.72-2.65,3.24-9.41,8.36-8.13,13.27.09.33.62,1.28,1.01,1.21.48-.08,1.95-3.01,2.2-.92.4,3.4-4.43,6.45-5.47,2.38s3.11-9.66,5.76-12.55c.82-.9,3.19-3.38,4.11-3.92.33-.19.56-.25.94-.19Z"/>
    <path d="M104.48,69.92c.26-.19.46.19.58.34,4.26,4.94,3.78,18.06-5.32,16.64-5.23-.82-5.66-8.19-5.95-12.35-.82-11.58.17-24.14-1.92-35.51-.15-.83-.86-4.95-1.71-5.09-.78-.14-2.07,3.83-2.44,4.52-.16.29.02.51-.51.4-.23-2,1.65-9.53,3.85-9.84.5-.07.9.44,1.17.81,3.51,4.71,3.59,26.2,3.83,32.78.16,4.34-.66,14.82,2.25,17.9,1.72,1.82,7.1,1.41,7.57-.88.25-1.23-2.36-4.08-2.44-5.3-.04-.52.83-4.26,1.04-4.42Z"/>
    <path d="M181.6,127.71c.12.09.76,2.46.8,2.8.37,3.22-1.51,7.91-5.43,5.84-1.52-.8-1.17-1.42-1.74-2.55-.11-.21-.34-.19-.41-.13-.09.07-.68,1.21-1.02,1.55-2.21,2.18-6.43,3.17-8.86.82-1.91-1.85-1.84-5.82-5.23-2.98-2.38,2-2.67,4.86-4.11,7.4-1.28,2.24-2.77,3.58-4.83,1.12-1.86-2.22-2.08-6.27-1.85-9.04.03-.39.51-3.07.62-3.19.72-.77.2,1.8.2,1.95-.06,2.23-.35,7.37,1.88,8.63,1.83,1.03,2.8-.53,3.59-1.93,1.53-2.73,2.18-5.9,4.72-8.03,3.62-3.04,3.83.99,5.76,2.89,2.11,2.08,5.99,1.4,8.13-.31.55-.44,2.38-2.77,2.57-2.77.46-.01.04,1.87.12,2.35.28,1.79,3.2,1.79,4.46,1,1.09-.68-.57-1.93-.55-2.82,0-.31.67-3.01,1.22-2.59Z"/>
    <path d="M108.18,135.32c-1.41,1.61-3,3.4-5.27,3.68-1.87.23-3.66.1-5.02-1.31-.76-.78-1.85-3.27-2.34-3.62-1.47-1.08-3.91,1.68-4.61,2.83-1.11,1.84-2.4,7.52-4.87,7.69-2.01.14-3.15-2.33-3.65-3.97-.88-2.91-.88-6.82.36-9.62.09,2.62-.84,8.68,1.49,10.49,1.77,1.38,3.02-.21,3.86-1.64,1.62-2.77,2.34-6.42,5.14-8.43,3.2-2.31,3.51,1.1,5.14,2.88,2.15,2.36,6.23,1.79,8.54-.1.62-.5,2-2.42,2.37-2.57.41-.17.3.25.28.49-.04.57-.28.96-.17,1.65.32,2.13,4.56,1.92,4.9.59.16-.64-.91-1.54-.94-2.25-.03-.59.64-2.11.87-2.74,1.91,2.04,1.5,7.69-1.15,8.92-2.1.98-4.79-.63-4.92-2.96Z"/>
    <path class="st0" d="M255.88,33.08c-.25-.14-.45-1.56-1.58-.81-1.27.84-1.88,7.62-2.46,9.46-2.19,6.98-12.41,10.23-18.6,12.55-.32-.27,1.07-1,1.25-1.11,2.66-1.73,5.62-3,8.35-4.61,1.58-.93,7.72-4.74,8.19-6.22.24-.75-1.52-6.74-2.08-7.58s-.63-.15-1.05-.06c-.45.1-1.98-1.11-2.09-1.54-.08-.32,1.1-2.42,1.24-2.5.24-.14,1.21.26,1.48.42,1.8,1.07,2.84,4.35,3.01,6.34.34-.04.41-.78.48-1.06.39-1.68.8-6.03,2.8-6.66,2.46-.78,2.52,4.22,1.06,3.38Z"/>
    <path d="M167.54,93.79c.3-.07,4.28,2.62,4.37,3.01.12.46-1.43,3.67-1.82,3.88-.26.14-.36.09-.61,0-.69-.27-3.39-2.57-3.61-2.57-.53.44-1.37,3.12-2.02,3.06-.47-.04-3.57-2.56-4.23-2.98-.05-.21,1.65-3.78,1.83-3.9.71-.45,3.67,2.15,4.43,2.58l1.66-3.07Z"/>
    <path class="st0" d="M146.84,53.26l-.36-2c-.66-1.12-1.01-.66-1.69.06-.85.9-1.21,2.14-2.17,2.97-1.28,1.11-2.81,1.25-4.21,1.96-2.86,1.45-.61,1.82,1.32,1.96,4.28.3,8.69-.46,12.96-.63,1.37-.05,2.95-.05,4.33,0,.25,0,.76-.16.72.2-4.2.97-8.31,2.03-12.65,2.26-1.9.1-5.38.23-7.18-.02-2.66-.36-2.11-2.46-.85-4.1,1.56-2.02,4.26-1.94,5.97-3.49.87-.78,1.83-3.17,2.62-3.55,2.19-1.06,1.62,3.28,1.18,4.37Z"/>
    <path d="M227.26,92.34l1.36-2.9c.61-.1,4.33,2.43,4.41,3.01s-1.55,3.91-1.99,3.98c-.41.07-3.33-2.48-4.07-2.65-.71.52-1.09,3-2.02,2.85-.25-.04-4.19-2.7-4.21-2.95l2.13-4c.79.1,4.06,2.9,4.4,2.66Z"/>
    <path class="st0" d="M178.1,81.44c-.63.1-.43-.71-1.16-.78-.68-.06-1.65,1.25-1.52,1.88.04.2,1.51.88,1.82.92.86.11,1.75-.69,2.41-1.2.37-.29,1.41-1.75,1.32-.53-.18,2.46-3.25,4.01-4.82,5.88-2.75,3.29-2.18,4.57,2.27,4.33l5.44-.93c-1.51,2.24-8.72,4.53-10.12,1.69-.89-1.79.9-5.39,2.1-6.83-3.22-1.16-2.13-3.72-.31-5.66,2.21-2.36,4.63-2.28,2.57,1.24Z"/>
    <path class="st0" d="M255.85,80.61c-.42.34-.5-.68-.96-.8-.7-.18-2.31,1.3-1.29,2.13.92.74,1.74.83,2.73.28.33-.19,2.24-2,2.4-1.81.07.64-.14,1.22-.35,1.8-.47,1.26-3.47,3.31-4.58,4.68-.55.67-1.87,2.46-1.43,3.25,1.18,2.11,7.27.13,9.24.03-5.71,5.22-14.48,3.73-8.02-5.14,0-.23-2.15-.82-2.05-2.44.1-1.47,3.02-5.34,4.58-4.83.55.18.62,1.14.46,1.63-.02.07-.68,1.18-.74,1.22Z"/>
    <path class="st0" d="M235.08,33.32c-.05.91-.44,1.87-1.29,2.3-4.07,1.62-8.27,2.9-12.33,4.54-1.05.42-7.34,2.89-7.35,3.75,1.03,1.3,3.36.56,3.09,2.68-.16,1.24-1.64.59-2.48.2-3.24-1.51-.29-5.28,1.71-6.52l18.65-6.95Z"/>
    <path class="st0" d="M168.03,49.56l2.12-1.47c2.68-1.54,5.62-2.87,8.19-4.56.86-.57,4.11-2.89,4.34-3.69.19-.68-1.33-6.24-1.71-6.51-.17-.12-.76.25-1.22.11-.7-.21-1.37-1.04-1.14-1.78s.84-1.55,1.67-1.24c1.81.68,2.4,3.17,2.78,4.85.07.32-.14.36.41.31.17-1.56.69-5.34,2.27-6.06,1.66-.76,2.37,2.53,1.33,2.77-.43.1-.77-1.07-1.61-.8-.96.31-1.66,6.58-2.05,7.84-1.74,5.63-10.29,8.55-15.37,10.24Z"/>
    <path class="st12" d="M273.33,100.98l-.67,1.09c-12.92,5.1-26.08,9.62-38.82,15.15-.05-1.64,1.27-1.82,2.47-2.36,4.78-2.12,10.05-3.94,14.96-5.82,7.31-2.79,14.66-5.53,22.06-8.07Z"/>
    <path class="st0" d="M132.24,37.84c-.56.38-1.54-1.87-2.28-.9-.62.8-1.28,3.87-1.53,5.01-.41,1.81-.51,3.99-1.06,5.72-.14.43-.31,1.13-.88,1.07.02-.36,0-.72-.06-1.07-.22-1.16-2.04-8.65-2.73-8.8-.23-.05-.53.45-1,.42s-1.54-.98-1.68-1.44c-.18-.59.9-2.42,1.47-2.48,2.14-.21,4.51,6.63,4.42,8.44.36-.08.44-.51.52-.81.63-2.34.48-6.22,2.25-8.04.23-.24.94-.8,1.24-.81.75-.02,1.68,1.29,1.75,1.96.03.27-.34,1.68-.41,1.73Z"/>
    <path class="st0" d="M198.47,29.82c-1.88,3.13-4.63,5.61-6.75,8.57-1.85,2.58-4.08,5.61-1.77,8.68.84,1.11,1.8.86,1.42,2.49-.07.3-.82,2.03-1.03,2.05-3.06-1.85-4.28-5.45-3.08-8.83s7-9.72,9.86-12.14c.2-.17,1.15-.99,1.34-.82Z"/>
    <path class="st0" d="M229.94,39.48c.05.06.19,1.26.31,1.64.69,2.18,1.59,3.04.73,5.46-.46,1.27-1.26,2.12-2.63,1.37l-1.29-1.69c-.29,2.45-3.43,3.74-4.27.87-.32-1.1-.05-2.92-.29-3.62-.1-.28-.54-.27-.6-.48-.26-1.02,1.28-2.91,1.76-2.13s-1.13,6.63,1.64,5.58c2.99-1.13-.11-4.93,1.43-6.8,1.33,1.2.48,6.58,2.85,6.32,1.71-.18.28-1.89-.03-2.77-.4-1.13-.82-2.38-.1-3.49.1-.15.17-.6.46-.26Z"/>
    <path class="st0" d="M149.93,43.6c-.17,2.59-3.72,3.69-4.27.67-.19-1.04.16-2.54-.04-3.41-.09-.36-1.18-.14-.64-1.49.16-.4,1.19-1.71,1.56-1.13.66,1.04-.86,3.69.5,5.26.98,1.12,2.48-.28,2.64-1.5.22-1.62-1.54-3.77.24-4.98.83,1.49.31,6.89,2.89,6.29,1.2-.28.01-1.8-.22-2.49-.44-1.31-1.28-3.1.21-4.01.32,2.77,2.35,4.57.98,7.45-.58,1.21-1.42,1.78-2.63.89-.63-.47-.7-1.09-1.22-1.55Z"/>
    <path d="M279.91,76.71c.27-.26,1.53.85,1.92,1.06,3.41,1.83,11.3,1.18,14.6-.9.8-.5,1.28-.58,1.13-1.65-.49-3.51-7.2-10.65-10.5-11.72-.65-.21-2.1-.04-2.33-.35-.43-.6.88-5.65,1.76-6.09.98-.48,3.49.99,4.38,1.59,4.26,2.84,9.2,9.57,8.99,14.88-.07,1.92-1.38,5.99-2.57,7.5-2.03,2.55-9.82,3.78-12.94,3.47-1.02-.1-4.52-1.13-4.96-2.03-.54-1.1.56-4.41.52-5.76Z"/>
    <circle cx="274.57" cy="80.73" r="3.04"/>
    <path d="M106.97,95.04c.56-.35,4.39,2.29,4.6,2.85.14.38-1.7,4.05-2.05,4.08l-4.33-3.04c.24-.51,1.6-3.77,1.78-3.89Z"/>
    <path class="st13" d="M216.77,104.88c-.87.16-1.07-1.22-1.73-.19-.78,1.21-.77,4.14-1.31,5.68-1.34,3.86-7.59,6.03-11.15,7.26,2.2-1.71,4.85-2.72,7.18-4.23,1.23-.79,3.61-2.11,3.5-3.66-.03-.38-1.05-3.92-1.22-4.04-.09-.06-1.49.54-1.83-.76-.11-.43.65-1.68,1.36-1.35,1.36.63,1.61,2.58,2.22,3.75.27-.98.28-2.07.68-3.02.9-2.19,2.56-1.83,2.3.55Z"/>
    <path class="st2" d="M76.92,107.14c-.32.3-.91-1.2-1.65-.32-.54.64-.89,3.88-1.33,5.05-1.39,3.68-6.24,5.6-9.77,6.58,2.16-1.66,4.73-2.69,6.94-4.27.47-.34,2.26-1.68,2.41-2.09s-.82-3.4-1.14-3.8c-.47-.58-1.69-.13-1.96-1.15-.05-.21.5-1.38.56-1.42,1.29-.83,2.92,2.9,2.86,3.88l.92-3.29c.99-2.11,2.8-1.25,2.16.83Z"/>
    <path class="st8" d="M179.34,107.56c-.25.45-.37,1.04-.88,1.28-3.54,1.34-7.17,2.5-10.69,3.91-.44.18-5.94,2.23-5.5,2.83,1.16.48,2.21.28,1.85,1.85-2.73-.11-3.02-1.83-1.24-3.61,1.08-1.08,7.31-3.13,9.16-3.8,2.41-.87,4.83-1.79,7.31-2.46Z"/>
    <path class="st8" d="M114.15,107.76c-.25.45-.37,1.04-.88,1.28-3.54,1.34-7.17,2.5-10.69,3.91-.44.18-5.94,2.23-5.5,2.83,1.16.48,2.21.28,1.85,1.85-2.73-.11-3.02-1.83-1.24-3.61,1.08-1.08,7.31-3.13,9.16-3.8,2.41-.87,4.83-1.79,7.31-2.46Z"/>
    <path class="st12" d="M111.47,39.07c.13.12-.72,1.8-1.04,1.94l-11.71,4.43c-.09-.09.61-2.21,1.04-2.35,3.87-1.41,7.72-2.94,11.71-4.02Z"/>
    <path class="st8" d="M152.19,105.09c.04.31-.14.58-.32.81-.68.84-8.91,3.5-10.63,4.18-1.54.61-3.7,1.32-5.08,2.12-2.1,1.22.5,1.1.77,1.56.15.25-.02.87.03,1.2-3.55-.19-2.27-2.83-.26-4.27,5.12-1.95,10.27-3.95,15.48-5.6Z"/>
    <path class="st1" d="M103.04,66.84c-.11-.13.27-2.67.21-3.4-.15-1.8-1.11-3.58-2.28-4.92-1.34-1.54-3.01-1.59-1.11-3.81,3.1,1.79,4.8,6.04,4.39,9.54-.03.25-.71,3.18-1.21,2.59Z"/>
    <path class="st0" d="M140.06,118.46l-.83,1.85-2.58-1.65c-.3-.45.82-2.63,1.03-2.65l2.47,1.62c.22,0,.73-1.33.88-1.58.08-.15-.04-.38.33-.24.27.1,2.3,1.55,2.36,1.77.17.6-.72,1.99-1.1,2.52l-2.57-1.64Z"/>
    <path class="st8" d="M288.35,104.47l-.4.93c-5.54,2.51-11.44,4.34-17.08,6.67l.52-1.23c5.51-2.42,11.28-4.35,16.96-6.38Z"/>
    <path class="st0" d="M96.24,126.06c-.47.33-1.98-1.43-2.57-1.44-.69,0-.8,1.78-1.42,1.64-.13-.03-2.09-1.44-2.18-1.54-.43-.49.63-2.45.96-2.55.7-.21,1.88,1.32,2.63,1.43.17,0,.65-1.57.74-1.64.36-.26,2.75,1.35,2.83,1.76.02.12-.9,2.26-1,2.33Z"/>
    <path class="st0" d="M104.06,146.01c-.47.33-1.98-1.43-2.57-1.44-.69,0-.8,1.78-1.42,1.64-.13-.03-2.09-1.44-2.18-1.54-.43-.49.63-2.45.96-2.55.7-.21,1.88,1.32,2.63,1.43.17,0,.65-1.57.74-1.64.36-.26,2.75,1.35,2.83,1.76.02.12-.9,2.26-1,2.33Z"/>
    <path class="st0" d="M174.18,144.36c-.27.19-2.44-1.43-2.83-1.73.29-.32.85-2.24,1.01-2.36.52-.37,2.38,1.5,2.75,1.42.48-.25.63-1.68,1.21-1.62.24.02,2.19,1.38,2.31,1.63.18.39-.66,2.2-.93,2.37-.49.32-1.98-1.25-2.56-1.35l-.96,1.63Z"/>
    <path class="st0" d="M76.31,122.16l-.94,1.85c-.14.03-2.24-1.36-2.37-1.53-.39-.52.65-2.48.97-2.57.59-.17,2.12,1.5,2.43,1.43.5-.34.61-1.66,1.23-1.65.26,0,2.27,1.34,2.35,1.59.21.65-.65,2.05-1.13,2.53l-2.55-1.64Z"/>
    <path class="st0" d="M240,123.79c-.32.22-2.18-1.35-2.55-1.63l-1.23,1.81c-.45-.33-2.59-1.44-2.55-1.87.01-.12.92-2.11,1.02-2.18.5-.36,2.09,1.23,2.58,1.41.44.16.7-1.41,1.03-1.64.46-.08,2.77,1.42,2.72,1.93-.02.17-.91,2.12-1.01,2.19Z"/>
    <path class="st0" d="M218.39,118.63c-.62.36-2.05-1.34-2.74-1.42-.74,2.12-1.47,1.82-2.97.5-1.28-1.12.21-1.59.4-2.96.26-.19,2.27,1.28,2.57,1.64l.93-1.85c.24-.18,2.79,1.57,2.82,1.95,0,.13-.9,2.07-1,2.13Z"/>
    <path class="st0" d="M68.48,121.53c.07-.05.56-1.65.74-1.64,1.85.84,3.46,1.61,1.83,3.7-.84,1.08-1.8-.91-2.85-1.01-.46.11-.61,1.67-1.22,1.61-.27-.03-2.31-1.51-2.38-1.77-.08-.32.86-2.25,1.13-2.31.63-.15,2.24,1.77,2.75,1.41Z"/>
    <path class="st0" d="M163.68,123.98c-.62.36-2.05-1.34-2.74-1.42-.74,2.12-1.47,1.82-2.97.5-1.28-1.12.21-1.59.4-2.96.26-.19,2.27,1.28,2.57,1.64l.93-1.85c.24-.18,2.79,1.57,2.82,1.95,0,.13-.9,2.07-1,2.13Z"/>
    <path class="st13" d="M204.23,49.97c.37-.04.22.7.19.91-.23,1.35-1.63,4.41-3.28,2.91-1.75-1.59-.02-6.66.68-8.6.64-1.78,1.48-3.81,2.62-5.3-1.01,3.26-3.45,7.23-2.83,10.75.4,2.28,2.31.75,2.63-.67Z"/>
    <path class="st3" d="M173.38,113.93c.04,1.56,1.11,2.23.68,3.87-.47,1.8-1.57,1.53-2.53.24-.13,1.01-1.14,1.86-2.06,1.13s-.42-2.19-.62-3.05c-.04-.16-.41-.14-.42-.25-.04-.6.91-1.93,1.22-.98.19.61-.85,3.61.91,3.12,1.62-.45-.06-3.89.87-3.87.6.01.47,3.18,1.27,3.46,1.85.64.1-1.8.06-2.74-.01-.34.11-1.1.62-.92Z"/>
    <path class="st3" d="M265.1,110.64c.04,1.66,1.58,3.12.31,4.73-1.09,1.37-2.01-.72-2.15-.61-.07.87-1,1.72-1.85,1.34-.93-.42-.73-2.09-.84-2.87-.04-.29-.33-.49-.36-.67-.06-.4.82-1.56,1.09-1.09.34.61-.82,3.76.98,3.26,1.62-.45-.06-3.89.87-3.87.7.01.22,3.84,1.85,3.7.74-.15-.49-2.33-.52-2.98-.01-.34.12-1.1.62-.93Z"/>
    <path class="st2" d="M107.36,117.84c-.71.54-.6,1.47-1.75,1.45-1.53-.02-.99-2.11-1.11-3.01-.05-.39-.4-.27-.43-.43-.11-.58.31-1.5,1.03-1.3.18.18-.6,4,.97,3.35s.55-2.08.51-3.04c0-.17.18-1.34.58-.93.49.51,0,4.2,1.73,3.69.71-.21-.22-1.37-.35-1.88-.15-.59-.42-1.69.27-2.02.2,1.56,1.16,2.45.73,4.12-.37,1.43-1.98,1.49-2.17,0Z"/>
    <path class="st13" d="M180.16,119.89c-.56-.05-.6-.52-1.23-.33-1.26.38-.43,1.59.88,1.32.71-.15,1.17-1.07,2-.99.85.88-4.09,3.28-4.52,3.91-.38-.66.82-1.65.82-1.75,0-.14-.91-.43-.97-1.06-.17-1.67,4.11-4.83,3.03-1.1Z"/>
    <path class="st8" d="M112.5,126.68c-.16.12-2.59-1.6-2.65-1.78-.18-.56.72-2.02,1.11-2.51.21-.02,2.49,1.54,2.56,1.76.17.56-.96,1.9-1.01,2.54Z"/>
    <path class="st8" d="M120.52,117.63c.15-.11,2.55,1.46,2.64,1.79.17.61-.72,1.99-1.1,2.52-.4-.37-2.45-1.42-2.56-1.77-.16-.54,1.01-1.88,1.01-2.54Z"/>
    <path class="st15" d="M74.79,115.8c.4-.12,2.42,1.26,2.52,1.56.18.55-.73,2.04-1.12,2.53-.17.04-2.48-1.58-2.54-1.78-.09-.3.85-2.23,1.15-2.32Z"/>
    <path class="st1" d="M250.63,115.59c.3-.07,2.43,1.41,2.52,1.78.08.32-.86,2.25-1.12,2.31-.34.08-2.31-1.44-2.73-1.73l1.33-2.36Z"/>
    <path class="st1" d="M200.86,118.47c.3-.09,2.44,1.32,2.52,1.57.18.56-.73,2.04-1.12,2.53-.17.04-2.48-1.58-2.54-1.78-.09-.3.86-2.24,1.14-2.32Z"/>
    <path d="M76.82,126.89c-.55.58-.8,1.78-.73,2.57.16,1.74,2.97,3.1.29,4.8-1.69,1.07-4.33.78-6.24.65.4-1,1.02-1.94,1.18-3.03.42-2.93-.48-8.49-4.06-4.47-1.77,1.99-2.75,5.18-1.65,7.7-3.05,1.08-5.12.39-5.53-3-.83-6.77-.11-14.21-.87-21.13-.22-1.97-1.58-10.92-3.89-4.97-.45,1.17-.74,2.55-.82,3.81.59.11.34-.14.46-.45.23-.57.72-2.19,1.29-2.42.37-.15.32.23.4.41,1.77,4.01,1.54,14.65,1.77,19.43.19,3.96-.83,13,5.6,11.99,1.11-.18,2.92-1.51,3.37-1.55.25-.02,2.6.9,3.47.98.88.08,2.41.09,3.28,0,5.06-.51,5.65-8.16,2.68-11.3ZM67.78,133.89c-.63-.05-1.83-1.2-1.73-1.91.09-.63,2.23-3.02,2.74-2.98.6.05,1.56,2.5,1.44,3.06-.13.56-1.94,1.87-2.45,1.83Z"/>
    <path d="M144.9,126.26c-.69-1.46-2.44-3.5-4.14-3.68-3.22-.35-5.97,6.86-1.94,7.71,1.67.35,3.15-.28,4.82.53,2.83,1.38-.41,2.74-1.93,3.36-1.59.66-5.24,1.72-6.78,1.03-1.22-.54-1.74-2.46-1.85-3.7-.62-7-.04-14.15-.85-21.15-.24-2.08-1.56-10.17-3.83-4.5-.48,1.2-.69,2.48-.87,3.75.55.1.36-.12.5-.41.4-.81.62-1.77,1.25-2.47.34-.16.53.61.61.83,2.3,6.46.99,17.79,1.76,24.98.16,1.51.5,3.5,1.44,4.73,2.34,3.05,8.85.51,11.03-1.82,2.28-2.43,2.14-6.32.8-9.19ZM138.85,126.21c.37-1.46,3.19.15,3.47,1.09-.73.05-3.8.19-3.47-1.09Z"/>
    <path d="M128.24,127.71c-.26-.53-.97-1.34-1.13-1.75-.25-.63,1.19,0,1.44-.31l-3.19-3.08c-.35-.15-.41.34-.46.56-.08.38-.33,2.34-.27,2.58.05.2.46.23.6.47.31.55.45,1.31.77,1.91.44.83,2.5,3.81,2.19,4.49-.29.64-1.64,1.08-2.22,1.47-1.63-2.92-4.35-6.24-7.06-2.1-3.08,4.71,1.72,6.7,5.72,5.21.59,1.48-1.03,3.03-2.05,4.01-2.91,2.82-9.06,7.22-13.23,5.61-4.18-1.62-2.07-7.08-1.38-10.24-.34-.45-1.44,3.24-1.5,3.53-1.13,4.86-.48,10.9,5.93,10.24,3.83-.39,10.91-6.22,12.59-9.62.44-.88,1-3.72,1.13-3.9.34-.48,1.7-.63,2.46-2.17,1.26-2.56.84-4.52-.34-6.93ZM119.72,133.39c.45-1.22,3.21-.17,3.27,1.1-.79.02-3.76.23-3.27-1.1Z"/>
    <path class="st0" d="M115.74,51.36c-.25-1.49-1.73-2.21-2.57-3.34,2.21-5.5,2.31-13.85-3.03-17.59-2.18,2.1.31,2.86,1.53,4.43,1.95,2.5,2.14,7.37,1.56,10.39-.51,2.65-3.23,7.27-2.96,9.7.3,2.64,3.34,1.92,4.62.5.76-.85,1.03-3,.84-4.1ZM112.19,54.31c-1.8-.11-.24-2.7-.1-3.72.19-.15,2.44,1.59,2.68,1.95.58.85-1.84,1.82-2.58,1.77Z"/>
    <path class="st15" d="M159,114.82c-.06-.16.13-1.77.19-2.01.21-.83,3.85-5.41.23-4.5-2.15.55-5.46,3.92-5.78,6.15-.47,3.33,1.83,2.88,2.66.5l1.13,1.03c-2.75,2.68-6.6,3.83-9.57,6.17,2.95-.81,5.99-2.14,8.41-4.03.44-.34,1.75-1.79,1.87-1.84.42-.19.73.72,1.14.33,1.21-1.16-.16-1.43-.29-1.8ZM155.81,114.98c-.54.62-1.54.66-1.58-.33-.07-1.79,4.33-5.9,5.75-5.01.59.37-.59,2.41-.89,2.4-.38-.01-.48-.74-1.65.04-1.33.88-.98,2.15-1.63,2.9ZM158.36,114.34c-.32.06-.48-.03-.73-.2-1.46-.95,1.1-1.91.73.2Z"/>
    <path class="st8" d="M94.79,111.34c1.31-2.52.71-3.73-2.02-2.22-2.09,1.15-4.69,3.85-4.75,6.37-.06,2.51,2.34,1.7,2.68-.11l1.44.72c-2.84,2.76-6.77,3.99-9.87,6.38,3.05-.89,6.08-2.18,8.62-4.13.43-.33,1.51-1.64,1.81-1.71.56-.14.88.92,1.35-.07.57-1.23-.43-1.11-.65-1.42-.07-.1.37-2.29.44-2.49.11-.33.69-.8.96-1.31ZM92.75,114.75l-1.23-.93c.98-1.13,1.4-.24,1.23.93ZM93.66,112.25c-.33.07-.83-.38-1.52-.07-1.53.7-1.11,3.24-2.67,3.52-1.37.24-.61-1.67-.25-2.33.68-1.25,3.1-3.34,4.52-3.52,1.81-.23.21,2.33-.07,2.4Z"/>
    <path class="st15" d="M238,107.43c-.11-.55,1.13-3.23-.71-2.92-2,.33-2.9,3.32-.58,4.18-1.29,1.88-3.14,3.25-4.92,4.63-.65.48-.72.41-.21-.21.92-1.15,2.68-4.33,1.02-5.44-1.33-.88-3.08.63-3.4,1.94-.42,1.73,1.57,2.59,1.56,3.19,0,.66-2.05,2.15-2.27,2.88-.08.28.03.38.3.3.49-.15,2.03-1.03,2.56-1.35,1.46-.88,3.2-2.22,4.33-3.49.37-.41,1.34-2.08,1.45-2.15.25-.17,1.1.71,1.23.62,1.16-1.67-.26-1.68-.36-2.18ZM229.94,109.73c.01-.85.79-1.03,1.52-.94,1.95.25.56,3.01-.49,3.7.55-1.37-1.04-1.91-1.03-2.76ZM237.23,107.15c-.82.14-1.58-1.52.09-1.22.01.27.41,1.14-.09,1.22Z"/>
    <path class="st13" d="M122.47,115.12c-1.87-1.24.46-3.91.32-5.2-.05-.44-.57-.59-.63-1.04-.09-.65.44-1.51.17-2.42-.48-1.59-3.74.94-2.81,2.6.29.52,1.42.9,1.11,1.37l-9.57,5.96c2.74-.97,5.9-2.01,8.21-3.82.4-.31,2-2.08,2.17-2.09.16-.01.65.29.7.48.06.26-.93,2.58-.99,3.3-.26,3.14,2.19,2.5,2.45-.13l-1.13.99ZM121.55,108.58c-.32.06-.48-.03-.73-.2-1.46-.95,1.1-1.91.73.2Z"/>
    <path d="M267.98,67.45c-.36-.05-.68.01-1.03.1-4.69,1.18-11,5.94-15.75,6.46-5.1.56-10.59-4.5-12.87-8.68-1.34-2.45-2.11-3.7.72-5.11,5.34-2.67,14.02-2.83,19.68-1.2.42-.39-2.03-1.98-2.28-2.14-6.53-4.15-17.69-4.43-20.91,3.94-2.64,6.85,1.97,13.37,7.56,16.91-1.97.72-4.2,1.44-6.3,1.62-3.07.27-6.02.47-6.25-3.36-.06-.92.61-2.65-.49-2.58-.91.06-3.97,3.71-4.96,4.52-2.55,2.09-8.29,4.32-11.19,2.15-1.35-1.01.45-1.55,1.1-2.78,1.41-2.7,1.53-7.83-.29-10.36-.89-1.24-2.3-1.81-3.46-2.71-.65-8.87-.19-18.05-1.5-26.88-.41-2.75-2.33-14.07-5.76-6.65-1.01,2.18-1.63,4.94-1.61,7.34.97-.57,1.75-4.74,2.8-4.92.66-.11,1.2,2.21,1.33,2.73.82,3.1.96,6.33,1.41,9.49l.62,17.58c-3.2-1.26-7.08-3.13-9.57-5.55-.24-.23-.57-.44-.51-.83,1.26.35,4.14.21,2.04-1.32-.73-.53-5.5-2.86-6.36-3.1-.28-.08-.54-.13-.83-.1v4.83c0,.49,1.22.88,1.62,1.26.7.64,1.47,1.99,2.18,2.76,3.2,3.46,7.29,5.67,11.52,7.6l.64,8.96c-.07.46-6.81,4.74-7.75,5.32-4.59,2.81-16.46,10.51-15.62-.81.11-1.53,1.12-6.64,1.71-7.96.39-.87,5.71-3.96,6.82-5.31.41-.5,2.06-4.41,1.76-4.71-.33-.06-.47.04-.73.2-3.7,2.35-6.22,5.36-10.84,6.64-5.19,1.44-9.73-1.36-11.99-6.01-.5-1.03-1.81-4.8-1.28-5.72.15-.25,2.26-1.33,2.69-1.52,3.4-1.46,8.48-2.22,12.15-1.79,1.59.19,3.03,1.24,4.65,1.21.31-.27-1.55-1.65-1.78-1.82-5.45-3.96-14.63-4.6-18.66,1.63-2.46,3.81-2.45,9.37.29,13.04-5.24-2.91-5.41-10.06-5.76-15.42-.43-6.49.08-18.57-2.79-24.15-.45-.87-.95-2.11-1.53-.76-2.04,4.78-.93,19.84-.82,25.73.12,6.29,2.03,12.95-3.51,17.25-.84.65-3.36,1.96-3.78,2.6-.38.57-1.12,3.59-.67,4.05.66.68,8.25,2.36,9.82,2.83.87.26,4.56,1.32,4.95,1.84.5.66-.12.93-.57,1.31-7.22,6.12-31.16,17.19-35.34,2.92-.18-.61-.66-2.36-.31-2.77,2.39-1.81,5.28-3.47,7.5-5.46,4.17-3.74,4.3-11.41-.65-14.55-4.47-2.84-10.37-4.03-14.05-8.26.86,0,4.09.17,2.54-1.21-.46-.4-6.78-3.53-7.18-3.53-.19,0-.5.2-.5.31v4.32c0,.56,1.44,1.25,1.85,1.65,2.42,2.37,3.38,4.28,6.52,6.44,3.48,2.39,9.85,4.32,12.5,7.03,2.23,2.28-2.03,3.52-3.33,4.89l-4.79,3.12c-.17-.19.67-2.73.82-3.19.57-1.74,1.81-3.99,2.22-5.6.05-.21.16-.75-.06-.88-2.72,3.07-3.97,7.11-4.89,11.04-4.41,2.63-8.89,6.22-14.13,6.84l2.78-2.67c2.99-3.89,2.71-8.04,1.13-12.45-.43-1.21-1.92-3.78-2.06-4.73-.11-.72,1.68.17,2.06.1,0-.16.02-.32-.03-.48-.32-.93-4.11-3.91-4.69-5.18l-.62-.3c-.2.14-.88,4.33-.82,4.81.08.69.68,1.17.92,1.77,1.42,3.56,2.53,7.25,4.38,10.64.11.37.03.69-.12,1.03-.48,1.09-3.81,3.59-4.92,4.33-.32.21-1.4,1.07-1.71.86-.84-2.19-.18-4.77.27-7.03.29-1.47.97-3.23,1.15-4.61.03-.22.06-1.13-.39-.7-.14.13-1.15,3.07-1.29,3.54-.59,1.92-1.21,4.44-1.38,6.43-.09,1.02.29,3.14-.3,3.81-9.33,5.99-19.82,9.62-29.87,14.15-1.19.54-2.67,1.14-3.77,1.79-.27.16-.52-.04-.4.51,1.87-.2,3.72-.54,5.55-.92,7.34-1.51,15.13-3.16,21.73-6.65,2.69-1.42,5.3-3.04,7.83-4.74.52-.13,1.38,1.07,2,1.42,2.22,1.24,4.23.48,6.35-.45,3.29-1.45,6.52-3.71,9.49-5.73.41-.05.27.01.31.3.12.95.08,2.12.23,3.06,1.38,8.46,7.69,11.61,15.77,9.86,6.58-1.43,19.78-7.48,23.24-13.37,5.16-8.78-2.89-9.08-9.21-11.17,3.27-3.98,3.39-9.16,3.3-14.09-.11-5.85-.72-11.81-.84-17.67-.06-2.77-.08-5.6.22-8.34.28.11.35,1.06.38,1.36,1.19,9.66.17,20.75,2.14,30.15,1.54,7.33,8.59,10.72,15.65,10.01,2.66-.27,5.29-1.68,7.74-2.65-2.31,4.72-5.43,20.26,3.75,19.07,1.42-.19,3.77-1.41,5.1-2.1,4.92-2.56,9.58-6.15,14.12-9.33l.47-.03c2.25,6.4,9.77,4.89,14,1.33,1.32-1.11,2.3-2.86,3.39-3.81,1.38-1.22.98.6,1.18,1.5,1.21,5.35,6.85,4.08,10.85,2.93,8.68-2.49,17.22-8.2,25.82-11.2.41-.64,2.71-4.8,2.36-5.15ZM211.63,75.68c.2-.44-.21-1.11-.21-1.34v-4.42c1.13.67,3.9,2.14,3.18,3.7-.2.43-2.69,2.37-2.98,2.06Z"/>
    <path class="st5" d="M297.6,131.82c-.39.34-3.1-.86-3.58-1.22s.18-.96.6-1.04c1.81-.35,2.56.67,2.98,2.25Z"/>
    <path d="M294.21,127.51c-2.96,2.76-2.42,6.72-7.22,7.59-2.31.42-3.65-.12-4.3-2.45-1.32-4.71-1.34-9.76-3.18-14.5-.32-.83-2.14-4.56-2.78-4.83-.41-.17-.28.28-.33.48-.87,3.41.51,4.29,1.62,7.28.69,1.86,2.25,6.71,1.81,8.5-.25,1.03-3.02,3.74-3.93,4.5-2.93,2.47-7.29,4.85-11.2,3.91-.08-.34.11-.42.31-.61,2.45-2.38,5.43-3.9,5.83-7.74.28-2.67-.65-6.67-3.07-8.19-3.39-2.13-7.66,5.84-3.04,6.94,1.27.3,4.36-.16,5.01,1.17.28.57-1.49,2.33-1.96,2.77-.4.38-3.85,3.23-4.12,2.98l1.13-5.76c-1.32,1.88-1.43,4.32-1.94,6.49-4.16,3.05-11.3,3.57-10.51-3.51.18-1.61,1.4-3.26,1.03-5.04-.36.26-.62-.19-.92-.19-.74-.01-2.05,1.71-2.68,2.24-1.88,1.58-3.45,2.72-6,1.69-3.17-1.28-3.05-7.23-7.26-3.64-1.4,1.2-2.24,2.95-3.05,4.56-.95,1.87-2.31,7.18-5.27,5.22-2.42-1.6-1.7-7.95-1.54-10.49-.49.24-.63,1.13-.73,1.63-.58,2.81-.49,6.36.7,8.99,1.82,4.06,4.1,3.71,6.04,0,1.13-2.17,1.54-4.73,3.36-6.51,3.76-3.7,3.68.71,5.79,2.64,1.7,1.56,4.61,1.65,6.52.41,1.53-1,2.12-3.13,3.84-3.67-.95,3.09-1.32,7.88,1.55,10.07,3.11,2.38,6.58.14,9.45-1.44,1.57,4.57,7.68,1.56,10.46-.24,2.85-1.84,6.15-4.76,6.93-8.19l1.04,4.82c2.2,5.94,9.02,2.22,10.28-2.34.44-.31,5.71,3.98,7.09,1.02,1.55-3.32-.35-10.68-4.73-6.58ZM264.42,124.47c.49-1.32,3.24.1,3.57,1.18-.74.05-4.09.22-3.57-1.18Z"/>
    <path class="st13" d="M296.16,117.02c-1.12,2.26-1.63.23-1.42-1.32.11-.84.92-2.14.81-2.89-.07-.45-.52-.59-.59-.87-.11-.44.42-1.78.14-2.6-.47-1.4-3.65.76-2.74,2.74.23.51,1.34.65,1.03,1.24l-7.31,4.93c2.35-.69,4.82-1.67,6.68-3.29.37-.33,1.33-1.62,1.44-1.63.04,0,.58.31.63.4.42.65-1.71,3.58-.51,5.23.94,1.28,1.8-.6,1.99-1.47.05-.21.18-.52-.16-.46ZM294.31,111.67l-1.23-.93c.98-1.13,1.4-.24,1.23.93Z"/>
    <path d="M219.13,121.34c-3.45-2.62-6.34,1.64-5.84,4.82.56,3.53,6.13.82,7.69,3,.85,1.18-.32,1.65-1.27,2.22-2.43,1.45-5.22,2.37-7.88,3.33,1.14-1.48,2.41-2.83,2.48-4.83.12-3.14-3.59-5.54-6.49-5.25-3.89.39-7.59,7.51-9.15,10.69-1.71-.4-2.41-1.85-1.85-3.49-.23-.22-2.8,1.67-3.32,1.93-3.28,1.65-7.22,2.52-7.76-2.26-.78-6.77-.13-14.06-.85-20.95-.12-1.16-1.01-6.55-1.88-7.06-1.6-.93-3,4.68-2.84,5.72.59.11.33-.16.47-.45.91-1.97,1.27-3.93,2.14-.41,1.85,7.5.57,16.5,1.51,24.2.98,8.11,6.62,6.51,11.21,2.17.51.35.21.99.35,1.49.33,1.12,1.74,1.96,1.76,2.1.04.25-.74,1.47-.26,1.96.56-.26.58-1.49,1.06-1.62.26-.07,2.43.55,3.06.59,4.74.34,15.27-2.41,18.91-5.55,3.35-2.89,2.08-9.81-1.23-12.33ZM215.17,124.11c.96-1.45,3.17-.16,3.66,1.13-1.22-.31-3.16.26-3.66-1.13ZM199.7,135.84c-.37-.22-.08-.25,0-.42,1.08-2.23,4.41-7.19,6.94-7.66,1.32-.24,2.66-.03,3.82.61.66.36,2.62,2.03,2.6,2.75-.02.64-2.58,2.36-3.22,2.73-2.18,1.26-7.87,3.34-10.14,2Z"/>
    <path class="st6" d="M201.33,110.55c-1.14-1.58-3,1.52-3.69,1.83-.5.22-1.14.05-1.7.15-2.03.39-3.92,3.48-5.49,4.79-.61.5-1.36.75-1.85,1.33,3.06-.15,4.43-4.69,7.51-4.75.7-.01,1.26.27,2.03.21,1.47-.11,4.27-2.08,3.2-3.57ZM198.06,112.7c-.16-.96,2.88-2.02,2.87-1.13,0,.49-2.36,1.16-2.87,1.13Z"/>
    <path class="st8" d="M33.94,114.13c2.38.19,2.49,2.85.13,1.41-1.73-1.06.2-2.99,1.23-3.85l15.5-5.79c.04.64-.31,1.21-.88,1.48-4.54,1.87-9.65,3.18-14.06,5.27-.32.15-2.28.98-1.92,1.47Z"/>
    <path class="st0" d="M29.41,123.39l-.74,1.66c-.45.08-2.76-1.54-2.73-1.93.05-.53.99-1.52,1-2.2.6-.14,2.73,1.76,2.87,1.65.1-.41.64-1.9,1.1-1.83.15.02,2.34,1.62,2.38,1.76.09.3-.86,2.24-1.14,2.32-.58.17-1.99-1.47-2.75-1.43Z"/>
    <path class="st0" d="M45.85,144.36c-.32.22-2.18-1.35-2.55-1.63l-1.23,1.81c-.45-.33-2.59-1.44-2.55-1.87.01-.12.92-2.11,1.02-2.18.5-.36,2.09,1.23,2.58,1.41.44.16.7-1.41,1.03-1.64.46-.08,2.77,1.42,2.72,1.93-.02.17-.91,2.12-1.01,2.19Z"/>
    <path class="st3" d="M43.6,112.49c.04,1.66,1.58,3.12.31,4.73-1.09,1.37-2.01-.72-2.15-.61-.07.87-1,1.72-1.85,1.34-.93-.42-.73-2.09-.84-2.87-.04-.29-.33-.49-.36-.67-.06-.4.82-1.56,1.09-1.09.34.61-.82,3.76.98,3.26,1.62-.45-.06-3.89.87-3.87.7.01.22,3.84,1.85,3.7.74-.15-.49-2.33-.52-2.98-.01-.34.12-1.1.62-.93Z"/>
    <path class="st1" d="M48.66,115.59c2.3.88,3.42,1.98,1.4,4.08-.23.06-2.45-1.5-2.53-1.77-.08-.32.86-2.25,1.13-2.31Z"/>
    <path class="st15" d="M28.62,112.76c-.06-.2.12-1.74.19-2,.12-.48,3.17-4.46,1.12-4.65-1.85-.17-5.34,3.19-6.1,4.8-1.45,3.05.03,5.88,2.1,2.2.16-.11,1.31.57,1.23.92-.17.79-6.59,4.04-7.4,5.04,2.43-.7,5.1-1.89,7-3.59.98-.88.58-1.69,2.06-.81.29-.25.79-.97.58-1.32-.06-.1-.63-.13-.77-.59ZM27.76,111.06l.21,1.43c-.22.25-2.55-1.4-.21-1.43ZM26.73,110.32c-.84.76-.94,2.4-1.27,2.74-.22.23-1.5.57-1.61.12-.44-1.83,2.36-4.45,3.85-5.18,3.22-1.57,1.72,1.86,1,1.94-.76.08-1.05-.46-1.97.38Z"/>
    <path d="M53.54,122.4c-4.01-2.67-6.87,3.8-5.1,6.13,1.18,1.56,4.87.22,6.78,1.65,1.03.77.88,1.1-.04,1.82-1.75,1.37-8.05,3.72-9.74,1.79-.75-.86-.29-1.6-.22-2.5.02-.24.13-.66-.28-.49-.36.15-1.75,2.07-2.37,2.57-2.31,1.89-6.39,2.46-8.54.1-1.63-1.78-1.93-5.19-5.14-2.88-3.03,2.18-3.55,6.12-5.45,8.95-2.03,3.03-4.22,1.42-4.88-1.5-.32-1.41-.51-5.82-.06-7.1.08-.23.53-.17.72-.34.73-.62.95-1.24,1.13-2.17-.33-.11-.46.5-.75.69-1.07.72-1.05-.85-1.1-1.62.47-1.84,1.12-3.6,1.85-5.35-1.01,1.18-1.67,3.03-2.05,4.52-.49,1.91-.11,2.41-.22,3.98-.07.94-.53,2.26-.6,3.32-.19,2.66.27,7.6,2.6,9.33,3.51,2.6,5.34-5.35,6.49-7.23.73-1.21,2.64-3.31,4.17-3.02.74.14,2,3.01,2.78,3.81,2.91,2.99,8.3.9,10.19-2.37,1.43,6.23,10.98,2.35,12.69-1.71,1.39-3.3.18-8.38-2.85-10.39ZM49.99,125.16c.38-1.17,3.23.31,3.48,1.31-.85.05-3.96.17-3.48-1.31Z"/>
    <path d="M86.79,41.54c-.73.25-2.12-2.24-2.47-1.85l2.05,27.87c-.06,7.8.74,15.41-5.24,21.29-5.05,4.96-14.83,11.83-22,12.34-14.62,1.04-16.34-15.7-11.01-25.71.17,0,.38-.09.41.1.12.9-.92,3.28-1.18,4.38-2.27,9.64,2.13,16.77,12.58,15.87,6.44-.55,17.26-7.33,22-11.72.88-.82,1.85-1.51,1.97-2.76.25-2.72-.07-6.27-.22-9.06-.49-9.32-1.45-18.65-2.05-27.97-.15-2.39,0-5.07-.21-7.4-.08-.93-.79-2.38-.8-2.88,0-.35,1.43-4.39,1.62-4.53.27-.2.33-.1.52.11,1.02,2.61,2.17,5.2,3.04,7.86.43,1.32,1.07,2.65.97,4.06Z"/>
    <path class="st0" d="M74.66,51c.68-2.67.52-7.91,3.22-9.44,1.29-.73,2.44,1.4,1.99,2.82-.55,1.74-1.15-.87-2.33-.28-1.25.62-2.22,9.08-2.77,10.81-.14.42-.24.75-.62,1.02l-1.65-6.37c-.2-.52-1.03-3.49-1.44-3.49-.16,0-.35.74-1.41.17-.19-.1-1.19-1.05-1.27-1.21-.17-.35.93-2.33,1.28-2.44,1.76-.57,3.67,4.28,4.08,5.53.3.91.28,2.23.92,2.88Z"/>
    <path class="st0" d="M52.85,71.98c-.15,1.39-1.61,5.65-3.38,3.49-2.1-2.56,1.23-8.58,1.51-11.64.36-3.97.02-6.7-2.45-9.84-1.21-1.54-1.74-1.1-.1-3.19,1.82,1.55,2.89,3.11,3.34,5.5.7,3.71.31,6.95-.66,10.53-.47,1.72-2.19,4.98-.81,6.57,1.08,1.25,1.87-.86,2.56-1.43Z"/>
  </g>
</svg>