<?xml version="1.0" encoding="UTF-8"?>
<svg id="Layer_1" xmlns="http://www.w3.org/2000/svg" version="1.1" viewBox="0 0 128 128">
  <!-- Generator: Adobe Illustrator 29.7.1, SVG Export Plug-In . SVG Version: 2.1.1 Build 8)  -->
  <defs>
    <style>
      .st0 {
        fill: #fff;
      }

      .st1 {
        fill: #ff9a30;
      }

      .st2 {
        fill: #b5975c;
      }
    </style>
  </defs>
  <path class="st0" d="M35.03,97.66c-.64,0-1.27-.15-1.88-.45l-1.54-.78c-.71-.41-.81-1.37-.66-2.13.57-2.78,4.08-6.34,9.4-9.52.63-.37,3.35-1.82,3.46-1.87l1.72-.91.07-.12c1.56-2.66,3.29-5.84,5.14-9.46l.23-.45c1.79-3.5,3.81-7.47,5.43-11.43l.64-1.55-.04-.16c-2.23-8.51-3.47-15.08-2.29-19.43.34-1.19,1.65-1.99,3.28-1.99l.98.03h.14c1.56,0,2.39,1.54,2.68,2.2l.16.42c.13.37.17.49.23.97.5,3.7-1.44,14.83-1.46,14.95-.09.39-.19.8-.31,1.26l-.04.15.05.15c1.87,5.11,4.86,9.75,8.44,13.08,1.33,1.25,3.04,2.3,4.69,3.25l.15.08.17-.02c3.38-.48,6.62-.73,9.38-.73h.46c4.08.06,6.75.67,7.9,1.81.4.39.73.93.78,1.29.16,1.26.17,3.04-.68,4.32-.35.52-.93.91-1.62,1.09-.48.13-1.08.19-1.79.19-4.11,0-10.72-2.1-16.08-5.12l-.15-.08-.17.03c-7.1,1.05-15.29,3-22.49,5.34l-.18.06-.1.17c-6.01,10.49-10.5,15.37-14.12,15.37ZM42.95,84.37c-.67.64-1.23,1.17-1.45,1.34-4.1,3.36-7.02,7.25-7.79,9.35l-.41,1.12,1.08-.5c2.44-1.12,5.58-4.71,9.33-10.69l-.77-.62ZM58.29,63.64c-1.32,3.43-2.81,6.69-4.7,10.25-.92,1.73-1.82,3.36-2.68,4.91l-.68,1.21,1.29-.5c4.77-1.83,10.12-3.32,16.34-4.55l1.07-.21-.86-.67c-.42-.33-.82-.66-1.21-.97-3.02-2.56-5.6-5.76-7.67-9.52l-.52-.94-.39,1ZM83.75,75.67c-1.2,0-2.61.06-4.18.17l-.16.96c4.07,1.75,6.87,2.76,9.2,2.76.55,0,1.88-.11,2.43-.44.32-.2.48-.59.42-1.01-.06-.39-.41-1.35-2.41-1.86-2.25-.58-3.02-.58-5.07-.58h-.22ZM58.65,38.4c-.17,0-.33.07-.45.19-.51.51-.59,2.87-.57,4.76,0,2.35.34,5.95,1.07,8.29l.35,1.11.57-1.02c1.09-1.96,1.6-4.18,1.54-6.78-.01-.67-.2-6.56-2.51-6.56Z"/>
  <circle class="st2" cx="104" cy="104" r="24"/>
  <polygon class="st0" points="104 122.35 87.04 98.1 98.54 98.1 98.54 88.83 108.87 88.83 108.87 98.1 121.28 98.1 104 122.35"/>
  <polygon id="id_103" class="st2" points="84 125.95 83.95 126 84 126 84 125.95"/>
  <polygon id="id_104" class="st1" points="114 77 114 76.95 113.95 77 114 77"/>
  <path class="st0" d="M24,125.5c-5.24,0-9.5-4.26-9.5-9.5V12c0-5.24,4.26-9.5,9.5-9.5h40.69c2.54,0,4.92.99,6.72,2.78l39.31,39.31c1.79,1.79,2.78,4.18,2.78,6.72v24.43l-3-3v-21.43c0-1.71-.69-3.39-1.9-4.6L69.28,7.4c-1.23-1.23-2.86-1.9-4.6-1.9H24c-3.58,0-6.5,2.92-6.5,6.5v104c0,3.58,2.92,6.5,6.5,6.5h55.74l3,3H24Z"/>
  <polyline id="id_106" class="st0" points="113.95 77 114 76.95 110 72.95"/>
</svg>