<svg width="27" height="36" viewBox="0 0 27 36" fill="none" xmlns="http://www.w3.org/2000/svg">
<path d="M12.9756 18.0068C12.6338 16.9131 12.6406 14.8008 12.8389 14.8008C13.4131 14.8008 13.3584 17.3232 12.9756 18.0068ZM12.8594 21.2334C12.333 22.6143 11.6768 24.1934 10.918 25.5195C12.1689 25.041 13.584 24.3438 15.2178 24.0225C14.3496 23.3662 13.5156 22.4228 12.8594 21.2334ZM6.42676 29.7646C6.42676 29.8193 7.3291 29.3955 8.8125 27.0166C8.35449 27.4473 6.82324 28.6914 6.42676 29.7646ZM17.4941 11.4375H26.791V33.8594C26.791 34.7686 26.0596 35.5 25.1504 35.5H2.18164C1.27246 35.5 0.541016 34.7686 0.541016 33.8594V2.14062C0.541016 1.23145 1.27246 0.5 2.18164 0.5H15.8535V9.79688C15.8535 10.6992 16.5918 11.4375 17.4941 11.4375ZM16.9473 23.1816C15.5801 22.3477 14.6709 21.1992 14.0283 19.5039C14.3359 18.2393 14.8213 16.3184 14.4521 15.1152C14.1309 13.1055 11.5537 13.3037 11.1846 14.6504C10.8428 15.9014 11.1572 17.665 11.7383 19.9141C10.9453 21.8008 9.77637 24.3301 8.94922 25.7793C8.94238 25.7793 8.94238 25.7861 8.93555 25.7861C7.08301 26.7363 3.9043 28.8281 5.20996 30.4346C5.59277 30.9062 6.30371 31.1182 6.67969 31.1182C7.90332 31.1182 9.12012 29.8877 10.8564 26.8936C12.6201 26.3125 14.5547 25.5879 16.2568 25.3076C17.7402 26.1143 19.4766 26.6406 20.6318 26.6406C22.6279 26.6406 22.7646 24.4531 21.9785 23.6738C21.0283 22.7441 18.2666 23.0107 16.9473 23.1816ZM26.3125 7.67773L19.6133 0.978516C19.3057 0.670898 18.8887 0.5 18.4512 0.5H18.041V9.25H26.791V8.83301C26.791 8.40234 26.6201 7.98535 26.3125 7.67773ZM21.2471 25.1299C21.5273 24.9453 21.0762 24.3164 18.3213 24.5146C20.8574 25.5947 21.2471 25.1299 21.2471 25.1299Z" fill="#AB8219"/>
</svg>
