<svg width="31" height="36" viewBox="0 0 31 36" fill="none" xmlns="http://www.w3.org/2000/svg">
<path d="M9.54232 13.3333C10.1867 13.3333 10.709 13.8557 10.709 14.5V28.5C10.709 29.1443 10.1867 29.6667 9.54232 29.6667C8.89799 29.6667 8.37565 29.1443 8.37565 28.5V14.5C8.37565 13.8557 8.89799 13.3333 9.54232 13.3333Z" fill="#AB8219"/>
<path d="M15.3757 13.3333C16.02 13.3333 16.5423 13.8557 16.5423 14.5V28.5C16.5423 29.1443 16.02 29.6667 15.3757 29.6667C14.7313 29.6667 14.209 29.1443 14.209 28.5V14.5C14.209 13.8557 14.7313 13.3333 15.3757 13.3333Z" fill="#AB8219"/>
<path d="M22.3757 14.5C22.3757 13.8557 21.8533 13.3333 21.209 13.3333C20.5647 13.3333 20.0423 13.8557 20.0423 14.5V28.5C20.0423 29.1443 20.5647 29.6667 21.209 29.6667C21.8533 29.6667 22.3757 29.1443 22.3757 28.5V14.5Z" fill="#AB8219"/>
<path fill-rule="evenodd" clip-rule="evenodd" d="M30.5423 7.5C30.5423 8.78866 29.4977 9.83333 28.209 9.83333H27.0423V30.8333C27.0423 33.4107 24.953 35.5 22.3757 35.5H8.37565C5.79832 35.5 3.70898 33.4107 3.70898 30.8333V9.83333H2.54232C1.25365 9.83333 0.208984 8.78866 0.208984 7.5V5.16667C0.208984 3.878 1.25365 2.83333 2.54232 2.83333H10.709C10.709 1.54467 11.7537 0.5 13.0423 0.5H17.709C18.9977 0.5 20.0423 1.54467 20.0423 2.83333H28.209C29.4977 2.83333 30.5423 3.878 30.5423 5.16667V7.5ZM6.31773 9.83333L6.04232 9.97104V30.8333C6.04232 32.122 7.08699 33.1667 8.37565 33.1667H22.3757C23.6643 33.1667 24.709 32.122 24.709 30.8333V9.97104L24.4336 9.83333H6.31773ZM2.54232 7.5V5.16667H28.209V7.5H2.54232Z" fill="#AB8219"/>
</svg>
