<svg width="48" height="53" viewBox="0 0 48 53" fill="none" xmlns="http://www.w3.org/2000/svg">
<path d="M24.6983 51.7997L18.6762 47.2345L18.6927 47.1836L21.4889 38.4188L21.7226 37.6892L25.7929 24.9335L28.7301 15.7218L28.7579 15.7146L35.7744 13.4235L36.8196 14.6651L34.3094 22.3949L27.2222 44.2222L26.9866 44.9495L24.6983 51.7997Z" fill="#044199"/>
<path d="M24.6983 51.7993L22.9239 52.2851L0.601636 25.7683L0.601985 25.7637L1.17271 23.8532L2.01126 23.6003L8.26863 21.7068L27.2221 44.2218L26.9866 44.9492L24.6983 51.7993Z" fill="#5F99FF"/>
<path d="M24.6983 51.7997L18.6762 47.2345L18.6927 47.1836L21.4889 38.4188L21.7226 37.6892L25.7929 24.9335L28.7301 15.7218L28.7579 15.7146L35.7744 13.4235L36.8196 14.6651L34.3094 22.3949L27.2222 44.2222L26.9866 44.9495L24.6983 51.7997Z" fill="url(#paint0_linear_105_4964)"/>
<path d="M24.6983 51.7993L22.9239 52.2851L0.601636 25.7683L0.601985 25.7637L1.17271 23.8532L2.01126 23.6003L8.26863 21.7068L27.2221 44.2218L26.9866 44.9492L24.6983 51.7993Z" fill="url(#paint1_linear_105_4964)"/>
<path d="M34.3092 22.3947L25.7927 24.9333L13.9532 28.4599L13.276 28.6627L5.14215 31.0868L5.09485 31.1011L0.601848 25.7639L1.17257 23.8533L2.01112 23.6005L7.58553 21.9029L35.7029 13.3386L36.8194 14.6649L34.3092 22.3947Z" fill="#005BE7"/>
<defs>
<linearGradient id="paint0_linear_105_4964" x1="27.4062" y1="32.3565" x2="29.8523" y2="19.8812" gradientUnits="userSpaceOnUse">
<stop offset="2.71717e-07" stop-color="#004CD0" stop-opacity="0"/>
<stop offset="1" stop-color="#0B0055"/>
</linearGradient>
<linearGradient id="paint1_linear_105_4964" x1="12.622" y1="32.4249" x2="8.54687" y2="26.3292" gradientUnits="userSpaceOnUse">
<stop offset="2.71717e-07" stop-color="#004CD0" stop-opacity="0"/>
<stop offset="1" stop-color="#0B0055"/>
</linearGradient>
</defs>
</svg>
